0
SECTION
2
HEADER
9
$INSUNITS
70
4
0
ENDSEC
0
SECTION
2
TABLES
0
TABLE
2
LAYER
70
1
0
LAYER
2
CUT
70
0
62
7
6
CONTINUOUS
0
ENDTAB
0
ENDSEC
0
SECTION
2
ENTITIES
0
CIRCLE
8
CUT
10
0.000
20
0.000
30
0.0
40
120.000
0
CIRCLE
8
CUT
10
0.000
20
0.000
30
0.0
40
65.000
0
CIRCLE
8
CUT
10
75.000
20
0.000
30
0.0
40
2.750
0
CIRCLE
8
CUT
10
37.500
20
64.952
30
0.0
40
2.750
0
CIRCLE
8
CUT
10
-37.500
20
64.952
30
0.0
40
2.750
0
CIRCLE
8
CUT
10
-75.000
20
0.000
30
0.0
40
2.750
0
CIRCLE
8
CUT
10
-37.500
20
-64.952
30
0.0
40
2.750
0
CIRCLE
8
CUT
10
37.500
20
-64.952
30
0.0
40
2.750
0
CIRCLE
8
CUT
10
82.869
20
18.915
30
0.0
40
1.550
0
CIRCLE
8
CUT
10
-57.815
20
62.309
30
0.0
40
1.550
0
CIRCLE
8
CUT
10
-25.054
20
-81.224
30
0.0
40
1.550
0
ENDSEC
0
EOF
